GIL08_free1_RRA_states
nRows=7
nColumns=47

# SIMM Motion File Header:
name GIL08_free1_RRA_states
datacolumns 47
datarows 7
otherdata 1
range 0.65100000000000036000 0.65400000000000036000
endheader
time	pelvis_tx	pelvis_ty	pelvis_tz	pelvis_tilt	pelvis_list	pelvis_rotation	hip_flexion_r	hip_adduction_r	hip_rotation_r	knee_angle_r	ankle_angle_r	subtalar_angle_r	mtp_angle_r	hip_flexion_l	hip_adduction_l	hip_rotation_l	knee_angle_l	ankle_angle_l	subtalar_angle_l	mtp_angle_l	lumbar_extension	lumbar_bending	lumbar_rotation	pelvis_tx_u	pelvis_ty_u	pelvis_tz_u	pelvis_tilt_u	pelvis_list_u	pelvis_rotation_u	hip_flexion_r_u	hip_adduction_r_u	hip_rotation_r_u	knee_angle_r_u	ankle_angle_r_u	subtalar_angle_r_u	mtp_angle_r_u	hip_flexion_l_u	hip_adduction_l_u	hip_rotation_l_u	knee_angle_l_u	ankle_angle_l_u	subtalar_angle_l_u	mtp_angle_l_u	lumbar_extension_u	lumbar_bending_u	lumbar_rotation_u
      0.65100000000000036000	      1.91739169187926440000	      0.93364992653729795000	     -0.24413617055079762000	      4.66192287569916620000	     -1.50544711677369740000	      8.60354742738471680000	     20.95579541252004000000	     -0.40424306498638307000	      4.10346848196697510000	    -17.97528148845779200000	     -5.97560337211217440000	     -0.00000000000002097458	      0.00000000000001024177	    -19.65454505069670400000	     -3.99060412554390660000	      6.34382001709472830000	    -23.84928091149272000000	      7.64906410643558220000	      0.00000000000013215451	     -0.00000000000036015256	     -7.63510496643984830000	      5.51818393834557950000	      1.34232625165205600000	      1.34943475163543860000	      0.08454368979678543400	      0.12901537460725465000	      8.12940575874327290000	    -30.89050003094839900000	     -3.32861405379301580000	     -6.75154862368135960000	     71.04420675300386300000	     24.56850473718678500000	   -149.36125465074051000000	    -15.11684661442614100000	     -0.00000000000018300592	      0.00000000000013166814	     39.92121607452795500000	    -62.78256080661275700000	    -91.57800550513410100000	   -182.90063471452692000000	   -304.57177667236078000000	      0.00000000000037474756	     -0.00000000000089004644	      7.77842046691731780000	     40.63916948289590900000	      7.61582931195874750000
      0.65150000000000030000	      1.91806633127653070000	      0.93369266904134041000	     -0.24407165397930700000	      4.66603806945392390000	     -1.52090331781050940000	      8.60190789058020580000	     20.95224933605905100000	     -0.36872496874928357000	      4.11559339269946990000	    -18.04981844210608300000	     -5.98263717833252160000	     -0.00000000000002106642	      0.00000000000001031001	    -19.63442763464096800000	     -4.02205944375137390000	      6.29792513695845630000	    -23.94089610808681800000	      7.49598120701772070000	      0.00000000000013233963	     -0.00000000000036058915	     -7.63128701871200390000	      5.53852375148042770000	      1.34607494994201530000	      1.34912086867875950000	      0.08642502638342596000	      0.12904738837979238000	      8.33119460074481030000	    -30.93360426435368300000	     -3.22859572451168250000	     -7.43376212846556510000	     71.02634976331832200000	     23.92908943128368900000	   -148.78392645528476000000	    -13.01823696724732700000	     -0.00000000000018688266	      0.00000000000014220945	     40.54903144979475400000	    -63.03797421405567300000	    -92.00039975449877300000	   -183.56007783932199000000	   -307.75580738810260000000	      0.00000000000036920116	     -0.00000000000089803102	      7.49358549756151590000	     40.71981597790711800000	      7.37719820632678140000
      0.65200000000000036000	      1.91874081078327820000	      0.93373635027940560000	     -0.24400712664356358000	      4.67025390290957620000	     -1.53638004320280990000	      8.60031974975695950000	     20.94836066377985900000	     -0.33321850217583882000	      4.12739555770804410000	    -18.12406286369900600000	     -5.98862123814118960000	     -0.00000000000002115890	      0.00000000000001038357	    -19.61399546893389000000	     -4.05364138771671010000	      6.25182071939871340000	    -24.03284079933390100000	      7.34131154783961650000	      0.00000000000013252764	     -0.00000000000036103929	     -7.62761117207948480000	      5.55890350909868850000	      1.34970170701685310000	      1.34879519850474820000	      0.08829865480155126000	      0.12905851454688116000	      8.53197898063040230000	    -30.97264100439097600000	     -3.12306853491143510000	     -8.12189510447865180000	     70.99777043515678100000	     23.27759183921726900000	   -148.19129072991501000000	    -10.91740223537581600000	     -0.00000000000019237178	      0.00000000000016303903	     41.18014759198689500000	    -63.28911460168584600000	    -92.41618016277566000000	   -184.21837991789201000000	   -310.92033665363084000000	      0.00000000000037787587	     -0.00000000000091851866	      7.21000392896303750000	     40.79899062067005400000	      7.12810987877178980000
      0.65250000000000030000	      1.91941512449411560000	      0.93378096638111996000	     -0.24394259894215428000	      4.67456986792155150000	     -1.55187527991514580000	      8.59878573097126160000	     20.94412648273655000000	     -0.29772898173129320000	      4.13886898992875270000	    -18.19800721134772900000	     -5.99355431657542150000	     -0.00000000000002125914	      0.00000000000001046968	    -19.59324693724892400000	     -4.08534783163609920000	      6.20551007395401740000	    -24.12511428721651500000	      7.18506428742008560000	      0.00000000000013271395	     -0.00000000000036149424	     -7.62407678891339470000	      5.57932249192928250000	      1.35320133331047980000	      1.34845764359924010000	      0.09016439048593996600	      0.12904877578797633000	      8.73168017500676010000	    -31.00760402068463200000	     -3.01208765654709950000	     -8.81577704812799290000	     70.95849015040173000000	     22.61412653926376500000	   -147.58352602121045000000	     -8.81498394702681410000	     -0.00000000000020184017	      0.00000000000017432294	     41.81456131735105000000	    -63.53589407691063700000	    -92.82525618811838800000	   -184.87547673569222000000	   -314.06435325680786000000	      0.00000000000035762661	     -0.00000000000087767703	      6.92777782284519980000	     40.87666389286171400000	      6.86866248089130500000
      0.65300000000000036000	      1.92008926643167800000	      0.93382651332283906000	     -0.24387808134458802000	      4.67898539016635250000	     -1.56738696558950990000	      8.59730856351145790000	     20.93954395394225200000	     -0.26226179468370964000	      4.15000770418078970000	    -18.27164389333834300000	     -5.99743605454450800000	     -0.00000000000002135897	      0.00000000000001055454	    -19.57218036047201800000	     -4.11717653859570730000	      6.15899660024335560000	    -24.21771606451120500000	      7.02725081168027540000	      0.00000000000013289172	     -0.00000000000036195138	     -7.62068315197295560000	      5.59977991638110330000	      1.35656865738237430000	      1.34810811829105370000	      0.09202204137974595600	      0.12901817547358238000	      8.93022374549126320000	    -31.03847676759708600000	     -2.89569805675757010000	     -9.51525551904856210000	     70.90851332035865100000	     21.93878072922336700000	   -146.96078276834280000000	     -6.71156155767775430000	     -0.00000000000020624664	      0.00000000000017126764	     42.45225678816542800000	    -63.77821359813274400000	    -93.22750856637499300000	   -185.53130316026787000000	   -317.18665863023028000000	      0.00000000000035687677	     -0.00000000000094806245	      6.64700563667212310000	     40.95279701072311000000	      6.59894225706925930000
      0.65350000000000030000	      1.92076323060141350000	      0.93387298704154076000	     -0.24381358423713648000	      4.68349988570484670000	     -1.58291307434101890000	      8.59589092458424630000	     20.93461032315080700000	     -0.22682224633488410000	      4.16080581214500000000	    -18.34496552821748900000	     -6.00026581567316250000	     -0.00000000000002146250	      0.00000000000001064026	    -19.55079413436168800000	     -4.14912528758033170000	      6.11228371739678340000	    -24.31064536785903100000	      6.86788141421362490000	      0.00000000000013306513	     -0.00000000000036241116	     -7.61742952432114610000	      5.62027502737111990000	      1.35979858106782920000	      1.34774652783611270000	      0.09387140395648406500	      0.12896675191472901000	      9.12753144273206020000	    -31.06525515686080000000	     -2.77395832033430610000	    -10.22015805234162800000	     70.84786852739557600000	     21.25168381023074800000	   -146.32324404571870000000	     -4.60776547142170400000	     -0.00000000000020915950	      0.00000000000017746365	     43.09322762173821500000	    -64.01598660835101400000	    -93.62284748076632500000	   -186.18579394629700000000	   -320.28624121378942000000	      0.00000000000033508035	     -0.00000000000086524000	      6.36778741840812580000	     41.02736038950067900000	      6.31905505454645140000
      0.65400000000000036000	      1.92143701093467120000	      0.93392038331073990000	     -0.24374911805994331000	      4.68811270333802900000	     -1.59845153606496250000	      8.59453548874524210000	     20.92932291752885400000	     -0.19141570209764608000	      4.17125744647055900000	    -18.41796469707437500000	     -6.00204385546233250000	     -0.00000000000002156752	      0.00000000000001072663	    -19.52908658996061000000	     -4.18119175131410610000	      6.06537492444742550000	    -24.40390162501967100000	      6.70696855595550550000	      0.00000000000013322987	     -0.00000000000036283746	     -7.61431508954339350000	      5.64080700879955280000	      1.36288603365542140000	      1.34737278913774630000	      0.09571226776247221400	      0.12889452410528285000	      9.32352940465860060000	    -31.08792500860903700000	     -2.64691702921881600000	    -10.93033053112687700000	     70.77656751687885600000	     20.55293769125911400000	   -145.67106320507006000000	     -2.50418385675704420000	     -0.00000000000020921988	      0.00000000000017886618	     43.73745466193808800000	    -64.24911551817477600000	    -94.01115487693365900000	   -186.83888307836187000000	   -323.36190228584809000000	      0.00000000000031772402	     -0.00000000000086750923	      6.09021947858846600000	     41.10031546213005500000	      6.02909506862021780000
